<svg width="40" height="40" viewBox="0 0 40 40" fill="none" xmlns="http://www.w3.org/2000/svg">
<path d="M2.40445 21.5057C1.78414 21.5057 1.28125 21.0027 1.28125 20.3825V15.1429C1.28125 10.9936 4.65695 7.61792 8.80633 7.61792H32.2061C32.8263 7.61792 33.3293 8.12089 33.3293 8.74112C33.3293 9.36136 32.8263 9.86433 32.2061 9.86433H8.80633C5.89563 9.86433 3.52766 12.2323 3.52766 15.1428V20.3824C3.52766 21.0027 3.02484 21.5057 2.40445 21.5057Z" fill="#273655"/>
<path d="M26.6922 13.5615C28.7315 10.4423 28.382 6.2186 25.6424 3.47899C22.5013 0.337896 17.4086 0.337896 14.2675 3.47899C11.5279 6.2186 11.1784 10.4423 13.2177 13.5615H26.6922Z" fill="white"/>
<path d="M26.6916 14.6847H13.2172C12.8381 14.6847 12.4845 14.4934 12.277 14.1762C9.9186 10.5689 10.4214 5.73594 13.4727 2.68469C15.2039 0.953359 17.5059 0 19.9543 0C22.4027 0 24.7046 0.953515 26.436 2.68469C29.4872 5.73586 29.9902 10.5687 27.6318 14.1761C27.4242 14.4934 27.0707 14.6847 26.6916 14.6847ZM13.8552 12.4383H26.0534C27.4775 9.78414 27.0103 6.43602 24.8475 4.27328C23.5406 2.96617 21.8027 2.24641 19.9543 2.24641C18.1059 2.24641 16.3681 2.96617 15.0611 4.27328C12.8983 6.43602 12.4312 9.78406 13.8552 12.4383Z" fill="#273655"/>
<path d="M19.7975 12.5658C18.652 12.5374 17.7905 11.9221 17.7905 11.3919C17.7905 11.1269 18.0272 10.7294 18.3207 10.7294C18.6804 10.7294 18.9644 11.3447 19.7975 11.4394V9.55552C18.936 9.23365 17.9609 8.86451 17.9609 7.65279C17.9609 6.45052 18.8508 5.9299 19.7975 5.80677V5.54169C19.7975 5.41857 19.9394 5.30505 20.1194 5.30505C20.2803 5.30505 20.4412 5.41865 20.4412 5.54169V5.78779C21.0565 5.80669 22.0599 5.98662 22.0599 6.5356C22.0599 6.75326 21.9084 7.18873 21.5582 7.18873C21.2931 7.18873 21.0754 6.88576 20.4412 6.83849V8.50459C21.2837 8.81693 22.2303 9.24302 22.2303 10.5304C22.2303 11.6949 21.5013 12.367 20.4412 12.5374V12.8309C20.4412 12.954 20.2802 13.0676 20.1194 13.0676C19.9395 13.0676 19.7975 12.9539 19.7975 12.8309V12.5658ZM19.8733 8.29638V6.86693C19.3999 6.94263 19.116 7.1699 19.116 7.52966C19.1158 7.94615 19.4378 8.12599 19.8733 8.29638ZM20.3654 9.78263V11.4298C20.7819 11.3446 21.0754 11.0985 21.0754 10.6536C21.0754 10.1897 20.7725 9.96255 20.3654 9.78263Z" fill="#273655"/>
<path d="M32.4634 40H8.80633C4.65703 40 1.28125 36.6243 1.28125 32.475V19.9992C1.28125 15.8499 4.65695 12.4741 8.80633 12.4741H32.4636C34.6345 12.4741 36.4008 14.2404 36.4008 16.4115V22.9398C36.4008 23.5601 35.8978 24.063 35.2776 24.063C34.6573 24.063 34.1544 23.5601 34.1544 22.9398V16.4115C34.1544 15.4791 33.3959 14.7206 32.4636 14.7206H8.80633C5.89563 14.7206 3.52766 17.0886 3.52766 19.9993V32.4751C3.52766 35.3856 5.89563 37.7536 8.80633 37.7536H32.4636C33.3959 37.7536 34.1544 36.9951 34.1544 36.0628V34.9963C34.1544 34.3761 34.6573 33.8731 35.2776 33.8731C35.8978 33.8731 36.4008 34.3761 36.4008 34.9963V36.0628C36.4006 38.2337 34.6345 40 32.4634 40Z" fill="#273655"/>
<path d="M37.5952 30.2401H28.6485C26.2854 30.2401 24.3696 28.3243 24.3696 25.9612C24.3696 23.598 26.2854 21.6823 28.6485 21.6823H37.5952V30.2401Z" fill="white"/>
<path d="M37.5953 31.3633H28.6488C25.6699 31.3633 23.2466 28.9399 23.2466 25.9612C23.2466 22.9824 25.6699 20.5591 28.6488 20.5591H37.5953C38.2155 20.5591 38.7185 21.062 38.7185 21.6823V30.2399C38.7185 30.8603 38.2155 31.3633 37.5953 31.3633ZM28.6488 22.8055C26.9087 22.8055 25.493 24.2212 25.493 25.9612C25.493 27.7012 26.9087 29.1169 28.6488 29.1169H36.472V22.8056H28.6488V22.8055Z" fill="#273655"/>
</svg>
