<svg width="40" height="40" viewBox="0 0 40 40" fill="none" xmlns="http://www.w3.org/2000/svg">
<path d="M20.0002 6.70242C20.0002 7.1732 19.9248 7.62547 19.7845 8.04875H11.6346C11.4943 7.62547 11.4189 7.1732 11.4189 6.70242C11.4189 4.33211 13.3404 2.4118 15.7096 2.4118C18.0787 2.4118 20.0002 4.33211 20.0002 6.70242Z" fill="white"/>
<path d="M28.5812 6.70242C28.5812 7.1732 28.5058 7.62547 28.3655 8.04875H20.2157C20.0754 7.62547 20 7.1732 20 6.70242C20 4.33211 21.9215 2.4118 24.2906 2.4118C26.6598 2.4118 28.5812 4.33211 28.5812 6.70242Z" fill="white"/>
<path d="M20.2155 9.20831H19.7841C19.1437 9.20831 18.6245 8.68902 18.6245 8.04871C18.6245 7.4084 19.1437 6.8891 19.7841 6.8891H20.2155C20.8558 6.8891 21.3751 7.4084 21.3751 8.04871C21.3751 8.68902 20.8559 9.20831 20.2155 9.20831Z" fill="#273655"/>
<path d="M24.4838 24.0591L20 20.5781L15.5161 24.0591V8.04871H24.4838V24.0591Z" fill="white"/>
<path d="M38.8403 6.8892H29.7371C29.7392 6.82701 29.7409 6.7649 29.7409 6.70248C29.7409 3.69718 27.296 1.25226 24.2907 1.25226C22.55 1.25226 20.9986 2.07351 20 3.34757C19.0015 2.07335 17.45 1.25226 15.7094 1.25226C12.7041 1.25226 10.2592 3.69718 10.2592 6.70248C10.2592 6.7649 10.2608 6.82701 10.2629 6.8892H1.15961C0.51914 6.8892 0 7.4085 0 8.04881V15.5666C0 16.2069 0.51914 16.7262 1.15961 16.7262H3.01156V37.588C3.01156 38.2284 3.5307 38.7477 4.17116 38.7477H35.8288C36.4691 38.7477 36.9884 38.2284 36.9884 37.588V21.3687C36.9884 20.7284 36.4691 20.2091 35.8288 20.2091C35.1885 20.2091 34.6692 20.7284 34.6692 21.3687V36.4285H25.6433V30.0506C25.6433 29.6924 25.4777 29.3542 25.1949 29.1347L20.7111 25.6535C20.2925 25.3285 19.7071 25.3286 19.2888 25.6535L14.8049 29.1346C14.5219 29.3544 14.3564 29.6925 14.3564 30.0506V36.4286H5.33077V16.7263H14.3565V24.0592C14.3565 24.5018 14.6086 24.906 15.0062 25.1007C15.1681 25.1799 15.3424 25.2189 15.516 25.2189C15.7689 25.2189 16.02 25.1362 16.2273 24.9752L20 22.0462L23.7728 24.9752C24.1225 25.2465 24.5963 25.295 24.9938 25.1007C25.3914 24.906 25.6435 24.5018 25.6435 24.0592V9.20841H37.6808V14.407H30.2047C29.5644 14.407 29.0451 14.9263 29.0451 15.5666C29.0451 16.2069 29.5644 16.7262 30.2047 16.7262H38.8404C39.4807 16.7262 40 16.2069 40 15.5666V8.04881C39.9999 7.40834 39.4808 6.8892 38.8403 6.8892ZM16.6756 30.6185L19.9999 28.0376L23.3241 30.6185V36.4286H16.6756V30.6185ZM14.3565 14.407H2.31921V9.20841H14.3565V14.407ZM15.5161 6.88912H12.5838C12.5802 6.82717 12.5783 6.76506 12.5783 6.70256C12.5783 4.97608 13.9829 3.57155 15.7093 3.57155C17.4358 3.57155 18.8404 4.97608 18.8404 6.70256C18.8404 6.76506 18.8385 6.82725 18.8349 6.88912H15.5161ZM23.3243 21.6909L20.7111 19.6621C20.5019 19.4998 20.251 19.4185 20 19.4185C19.7491 19.4185 19.4982 19.4996 19.2889 19.6621L16.6758 21.6909V9.20834H19.7844H20.2158H23.3244V21.6909H23.3243ZM27.4161 6.88912H24.4839H21.165C21.1614 6.82717 21.1596 6.76506 21.1596 6.70256C21.1596 4.97608 22.5641 3.57155 24.2906 3.57155C26.0171 3.57155 27.4216 4.97608 27.4216 6.70256C27.4216 6.7649 27.4197 6.82717 27.4161 6.88912Z" fill="#273655"/>
</svg>
