<svg width="40" height="40" viewBox="0 0 40 40" fill="none" xmlns="http://www.w3.org/2000/svg">
<path d="M8.06553 31.7802C10.0889 31.7802 11.7292 30.14 11.7292 28.1166C11.7292 26.0932 10.0889 24.4529 8.06553 24.4529C6.04214 24.4529 4.40186 26.0932 4.40186 28.1166C4.40186 30.14 6.04214 31.7802 8.06553 31.7802Z" fill="white"/>
<path d="M19.8623 8.85889V27.5936H25.219C25.473 25.8184 26.999 24.4536 28.8445 24.4536C30.6901 24.4536 32.2161 25.8184 32.4701 27.5936H38.9232V8.85889H19.8623Z" fill="white"/>
<path d="M38.9231 7.782H19.8621C19.2674 7.782 18.7852 8.26426 18.7852 8.85895V26.5167H16.1593V21.0644C16.1593 20.4697 15.6772 19.9874 15.0824 19.9874C14.4875 19.9874 14.0054 20.4697 14.0054 21.0644V26.5167H12.527C11.8691 24.6881 10.1177 23.3767 8.06525 23.3767C6.01282 23.3767 4.26157 24.6881 3.60352 26.5167H2.88297C2.48086 26.5167 2.15368 26.1895 2.15368 25.7874V22.1766C2.15368 21.9606 2.24852 21.7569 2.41399 21.618C2.43391 21.6012 2.45321 21.5838 2.4718 21.5657L5.07751 19.0336H9.0226C9.61736 19.0336 10.0996 18.5513 10.0996 17.9566C10.0996 17.3619 9.61744 16.8797 9.0226 16.8797H6.06947L8.02713 11.7198C8.69385 10.2521 10.1621 9.302 11.7692 9.29669L14.0055 9.3038V13.6686C14.0055 14.2633 14.4876 14.7455 15.0825 14.7455C15.6773 14.7455 16.1594 14.2633 16.1594 13.6686V8.2302C16.1594 7.63669 15.6793 7.1552 15.0859 7.15325L11.7692 7.1427C9.29947 7.15067 7.05392 8.61325 6.04822 10.8689C6.03993 10.8875 6.0322 10.9064 6.02493 10.9254L3.51032 17.5533L0.995783 19.9967C0.362423 20.5451 0 21.337 0 22.1765V25.7873C0 27.3772 1.29336 28.6705 2.88313 28.6705H3.35837C3.63352 31.0242 5.63884 32.8573 8.06533 32.8573C10.4918 32.8573 12.4971 31.0242 12.7723 28.6705H24.1375C24.4126 31.0242 26.4179 32.8573 28.8444 32.8573C29.4392 32.8573 29.9214 32.375 29.9214 31.7803C29.9214 31.1856 29.4393 30.7034 28.8444 30.7034C27.4183 30.7034 26.2579 29.5432 26.2579 28.1169C26.2579 27.9906 26.2676 27.8666 26.2851 27.7452C26.2957 27.6706 26.3101 27.5973 26.3271 27.5252C26.3287 27.5183 26.3302 27.5114 26.3319 27.5045C26.3487 27.435 26.3686 27.3667 26.391 27.2998C26.3935 27.2923 26.3961 27.2846 26.3986 27.2772C26.422 27.2095 26.4479 27.1428 26.4766 27.0777C26.4783 27.0738 26.4803 27.0698 26.482 27.0658C26.8263 26.297 27.5358 25.7312 28.3728 25.5742C28.3744 25.574 28.376 25.5737 28.3776 25.5734C28.4514 25.5597 28.5261 25.5492 28.6016 25.5421C28.6072 25.5416 28.6128 25.5413 28.6184 25.5408C28.693 25.5342 28.7684 25.5303 28.8444 25.5303C28.9204 25.5303 28.9958 25.5342 29.0704 25.5408C29.0761 25.5413 29.0816 25.5416 29.0872 25.5421C29.1627 25.5492 29.2375 25.5597 29.3112 25.5734C29.3129 25.5736 29.3144 25.5739 29.3161 25.5742C30.1534 25.7313 30.8632 26.2976 31.2073 27.0667C31.2087 27.0701 31.2103 27.0734 31.2118 27.0767C31.2408 27.1423 31.2669 27.2094 31.2904 27.2779C31.2927 27.2848 31.2951 27.2918 31.2975 27.2987C31.3201 27.3663 31.3401 27.4352 31.3572 27.5052C31.3587 27.5114 31.36 27.5175 31.3615 27.5237C31.3786 27.5966 31.3931 27.6706 31.4039 27.7459C31.4213 27.867 31.4309 27.9908 31.4309 28.1167C31.4309 28.7114 31.913 29.1937 32.5079 29.1937C32.9 29.1937 33.242 28.9834 33.4304 28.6703H38.923C39.5178 28.6703 40 28.1881 40 27.5934V8.85895C40.0001 8.26419 39.518 7.782 38.9231 7.782ZM8.06549 30.7035C6.63931 30.7035 5.479 29.5434 5.479 28.117C5.479 26.6908 6.63931 25.5305 8.06549 25.5305C9.49166 25.5305 10.652 26.6908 10.652 28.117C10.652 29.5433 9.49166 30.7035 8.06549 30.7035ZM37.8462 26.5167H33.3062C33.2872 26.4636 33.2665 26.4114 33.2456 26.3593C33.2431 26.3531 33.2408 26.347 33.2384 26.341C33.2165 26.2869 33.1933 26.2332 33.1694 26.18C33.1687 26.1786 33.168 26.1772 33.1674 26.1758C32.505 24.7066 31.1158 23.6339 29.4603 23.4181C29.4333 23.4146 29.4062 23.4109 29.3791 23.4078C29.3433 23.4037 29.3073 23.4003 29.2712 23.397C29.2291 23.393 29.1868 23.3901 29.1444 23.3873C29.1169 23.3855 29.0897 23.3836 29.0621 23.3823C28.9899 23.379 28.9175 23.3769 28.8447 23.3769C28.7719 23.3769 28.6994 23.3791 28.6272 23.3823C28.5997 23.3837 28.5723 23.3855 28.545 23.3873C28.5026 23.3899 28.4602 23.393 28.4181 23.397C28.382 23.4002 28.3461 23.4037 28.3102 23.4078C28.2831 23.4109 28.2561 23.4146 28.229 23.4181C26.5744 23.6338 25.1858 24.7055 24.5229 26.1734C24.5215 26.1763 24.5203 26.1792 24.5189 26.1822C24.4955 26.2341 24.473 26.2864 24.4515 26.3393C24.4481 26.3473 24.4451 26.3556 24.4418 26.3637C24.4216 26.4144 24.4015 26.4652 24.3829 26.5167H20.9399H20.9393V9.93591H37.8464V26.5167H37.8462Z" fill="#273655"/>
</svg>
