<svg width="109" height="32" viewBox="0 0 109 32" fill="none" xmlns="http://www.w3.org/2000/svg">
<g clip-path="url(#clip0_910_1238)">
<path d="M35.7712 5.77148C36.114 5.77148 36.3998 5.82863 36.7426 6.00006C37.0855 6.17148 37.314 6.34291 37.4855 6.57148L37.0855 6.97148C36.7426 6.57148 36.3426 6.40006 35.7712 6.40006C35.314 6.40006 34.7998 6.57148 34.4569 6.97148C34.0569 7.31434 33.8855 7.77148 33.8855 8.34291C33.8855 8.91434 34.0569 9.42863 34.4569 9.71434C34.8569 10.0572 35.2569 10.2858 35.7712 10.2858C36.3426 10.2858 36.7426 10.1143 37.1426 9.71434C37.3712 9.48577 37.5426 9.14291 37.5426 8.74291H35.7712V8.17148H38.114V8.40006C38.114 9.02863 37.9426 9.6572 37.5426 10.0572C37.0855 10.5715 36.514 10.8001 35.7712 10.8001C35.0283 10.8001 34.4569 10.5715 33.9998 10.0572C33.5426 9.54291 33.2569 8.97148 33.2569 8.22863C33.2569 7.48577 33.4855 6.91434 33.9998 6.40006C34.4569 6.00006 35.0283 5.77148 35.7712 5.77148ZM57.4283 5.77148C58.1712 5.77148 58.7426 6.00006 59.1998 6.51434C59.6569 7.02863 59.9426 7.60006 59.9426 8.34291C59.9426 9.08577 59.714 9.6572 59.1998 10.1715C58.7426 10.6858 58.1712 10.9143 57.4283 10.9143C56.6855 10.9143 56.114 10.6858 55.6569 10.1715C55.1998 9.6572 54.914 9.08577 54.914 8.34291C54.914 7.60006 55.1426 7.02863 55.6569 6.51434C56.1712 6.00006 56.7426 5.77148 57.4283 5.77148ZM45.7712 5.82863V6.40006H44.3998V10.7429H43.8283V6.40006H42.4569V5.82863H45.7712ZM48.8569 5.82863V10.7429H48.2283V5.82863H48.8569ZM52.8569 5.82863V6.40006H51.4855V10.7429H50.914V6.40006H49.5426V5.82863H52.8569ZM61.5426 5.82863L63.8855 9.6572V5.82863H64.514V10.7429H63.8855L61.3712 6.74291V10.7429H60.7998V5.82863H61.5426ZM41.8283 5.77148V6.40006H39.6569V8.00006H41.6569V8.57148H39.6569V10.1143H41.8283V10.6858H39.0283V5.77148H41.8283ZM57.4283 6.34291C56.9712 6.34291 56.4569 6.51434 56.114 6.91434C55.7712 7.2572 55.5426 7.71434 55.5426 8.28577C55.5426 8.8572 55.714 9.37148 56.114 9.6572C56.4569 10.0001 56.914 10.2286 57.4283 10.2286C57.8855 10.2286 58.3998 10.0572 58.7426 9.6572C59.0855 9.31434 59.314 8.8572 59.314 8.28577C59.314 7.71434 59.1426 7.20006 58.7426 6.91434C58.3998 6.57148 57.9426 6.34291 57.4283 6.34291ZM54.6283 17.3715C52.6855 17.3715 51.1998 18.8001 51.1998 20.8001C51.1998 22.6858 52.7426 24.2286 54.6283 24.2286C56.5712 24.2286 58.0569 22.8001 58.0569 20.8001C58.0569 18.7429 56.5712 17.3715 54.6283 17.3715ZM54.6283 22.8001C53.5998 22.8001 52.6855 21.9429 52.6855 20.7429C52.6855 19.5429 53.5426 18.6858 54.6283 18.6858C55.714 18.6858 56.5712 19.4858 56.5712 20.7429C56.5712 21.9429 55.6569 22.8001 54.6283 22.8001ZM47.1426 17.3715C45.1998 17.3715 43.714 18.8001 43.714 20.8001C43.714 22.6858 45.2569 24.2286 47.1426 24.2286C49.0283 24.2286 50.5712 22.8001 50.5712 20.8001C50.6283 18.7429 49.0855 17.3715 47.1426 17.3715ZM47.1426 22.8001C46.114 22.8001 45.1998 21.9429 45.1998 20.7429C45.1998 19.5429 46.0569 18.6858 47.1426 18.6858C48.2283 18.6858 49.0855 19.4858 49.0855 20.7429C49.0855 21.9429 48.2283 22.8001 47.1426 22.8001ZM38.2855 18.4572V19.8858H41.714C41.6569 20.6858 41.314 21.3143 40.914 21.7143C40.4569 22.1715 39.6569 22.7429 38.2855 22.7429C36.114 22.7429 34.514 21.0858 34.514 18.9143C34.514 16.8001 36.1712 15.0858 38.2855 15.0858C39.4283 15.0858 40.2855 15.5429 40.914 16.1143L41.9426 15.0858C41.0855 14.2858 39.9426 13.6572 38.3426 13.6572C35.4283 13.6572 32.9712 16.0572 32.9712 18.9143C32.9712 21.7715 35.4283 24.1715 38.3426 24.1715C39.9426 24.1715 41.0855 23.7143 42.0569 22.6858C43.0283 21.7143 43.314 20.4001 43.314 19.3715C43.314 19.0286 43.314 18.7429 43.2569 18.5143H38.2855V18.4572ZM74.6855 19.5429C74.3426 18.7429 73.5426 17.4286 71.7712 17.4286C69.9998 17.4286 68.5712 18.8001 68.5712 20.8572C68.5712 22.7429 69.9998 24.2858 71.9426 24.2858C73.4855 24.2858 74.3998 23.3143 74.7426 22.8001L73.5998 22.0001C73.1998 22.5715 72.7426 22.9715 71.9426 22.9715C71.1426 22.9715 70.6855 22.6286 70.2855 21.9429L74.8569 20.0572L74.6855 19.5429ZM69.9998 20.6286C69.9998 19.3715 71.0283 18.6286 71.7712 18.6286C72.3426 18.6286 72.9141 18.9715 73.0283 19.3143L69.9998 20.6286ZM66.2283 23.8858H67.7712V14.0001H66.2283V23.8858ZM63.8283 18.1143C63.4283 17.7143 62.7998 17.3143 61.9998 17.3143C60.3426 17.3143 58.6855 18.8001 58.6855 20.7429C58.6855 22.6286 60.2283 24.0572 61.9998 24.0572C62.7998 24.0572 63.4283 23.6572 63.7712 23.2572H63.8283V23.7143C63.8283 24.9715 63.0855 25.7143 61.9998 25.7143C61.1426 25.7143 60.4569 25.0858 60.3426 24.5143L59.0855 25.0858C59.4855 25.9429 60.4569 27.0858 62.114 27.0858C63.8855 27.0858 65.314 26.0572 65.314 23.6001V17.5429H63.8855V18.1143H63.8283ZM62.0569 22.8001C61.0283 22.8001 60.114 21.9429 60.114 20.7429C60.114 19.5429 60.9712 18.6858 62.0569 18.6858C63.0855 18.6858 63.8855 19.5429 63.8855 20.7429C63.9426 21.9429 63.1426 22.8001 62.0569 22.8001ZM81.6569 14.0001H78.0569V23.8858H79.5998V20.1715H81.6569C83.314 20.1715 84.9712 18.9715 84.9712 17.0858C84.9712 15.2001 83.314 14.0001 81.6569 14.0001ZM81.714 18.7429H79.5426V15.3143H81.714C82.8569 15.3143 83.4855 16.2858 83.4855 16.9715C83.4283 17.8858 82.7426 18.7429 81.714 18.7429ZM90.9141 17.3143C89.7712 17.3143 88.6855 17.7715 88.2855 18.8001L89.6569 19.3715C89.9998 18.8001 90.4569 18.6858 91.0283 18.6858C91.8283 18.6858 92.5712 19.1429 92.6283 19.9429V20.0001C92.3998 19.8286 91.7712 19.6001 91.0855 19.6001C89.6569 19.6001 88.1712 20.4001 88.1712 21.8286C88.1712 23.2001 89.3712 24.0572 90.6283 24.0572C91.6569 24.0572 92.1712 23.6001 92.5712 23.0858H92.6283V23.8858H94.0569V20.0572C93.9998 18.3429 92.6283 17.3143 90.9141 17.3143ZM90.7998 22.8001C90.3426 22.8001 89.5998 22.5715 89.5998 21.9429C89.5998 21.1429 90.4569 20.9143 91.1998 20.9143C91.8283 20.9143 92.1712 21.0858 92.5712 21.2572C92.3998 22.1715 91.5998 22.8001 90.7998 22.8001ZM99.1998 17.5429L97.5426 21.8286H97.4855L95.714 17.5429H94.114L96.7426 23.5429L95.1998 26.8572H96.7426L100.857 17.4858H99.1998V17.5429ZM85.714 23.8858H87.2569V14.0001H85.714V23.8858Z" fill="white"/>
<path d="M8.34287 6.05713C8.1143 6.2857 7.94287 6.6857 7.94287 7.19999V25.1428C7.94287 25.6571 8.1143 26.0571 8.34287 26.2857L8.40001 26.3428L18.4 16.2286V16.1714V16.1143L8.34287 6.05713Z" fill="url(#paint0_linear_910_1238)"/>
<path d="M21.7142 19.7143L18.3999 16.4V16.2286V16.1715L21.7142 12.8572L21.7713 12.9143L25.7142 15.2C26.857 15.8286 26.857 16.9143 25.7142 17.5429L21.7142 19.7143Z" fill="url(#paint1_linear_910_1238)"/>
<path d="M21.8285 19.6L18.4571 16.1714L8.34277 26.4C8.74277 26.8 9.3142 26.8 10.0571 26.4571L21.8285 19.6Z" fill="url(#paint2_linear_910_1238)"/>
<path d="M21.8285 12.8L10.0571 6.05713C9.3142 5.65713 8.74277 5.71428 8.34277 6.11428L18.4571 16.2857L21.8285 12.8Z" fill="url(#paint3_linear_910_1238)"/>
</g>
<defs>
<linearGradient id="paint0_linear_910_1238" x1="14.441" y1="7.07568" x2="5.82495" y2="15.7576" gradientUnits="userSpaceOnUse">
<stop stop-color="#00A0FF"/>
<stop offset="0.00657445" stop-color="#00A1FF"/>
<stop offset="0.2601" stop-color="#00BEFF"/>
<stop offset="0.5122" stop-color="#00D2FF"/>
<stop offset="0.7604" stop-color="#00DFFF"/>
<stop offset="1" stop-color="#00E3FF"/>
</linearGradient>
<linearGradient id="paint1_linear_910_1238" x1="27.3211" y1="16.2656" x2="7.7891" y2="16.2656" gradientUnits="userSpaceOnUse">
<stop stop-color="#FFE000"/>
<stop offset="0.4087" stop-color="#FFBD00"/>
<stop offset="0.7754" stop-color="#FFA500"/>
<stop offset="1" stop-color="#FF9C00"/>
</linearGradient>
<linearGradient id="paint2_linear_910_1238" x1="19.0494" y1="18.5253" x2="4.33522" y2="33.3561" gradientUnits="userSpaceOnUse">
<stop stop-color="#FF3A44"/>
<stop offset="1" stop-color="#C31162"/>
</linearGradient>
<linearGradient id="paint3_linear_910_1238" x1="4.90131" y1="5.23012" x2="11.4855" y2="11.8678" gradientUnits="userSpaceOnUse">
<stop stop-color="#32A071"/>
<stop offset="0.0685" stop-color="#2DA771"/>
<stop offset="0.4762" stop-color="#15CF74"/>
<stop offset="0.8009" stop-color="#06E775"/>
<stop offset="1" stop-color="#00F076"/>
</linearGradient>
<clipPath id="clip0_910_1238">
<rect width="108.571" height="32" fill="white"/>
</clipPath>
</defs>
</svg>
