<svg width="40" height="40" viewBox="0 0 40 40" fill="none" xmlns="http://www.w3.org/2000/svg">
<g clip-path="url(#clip0_910_1371)">
<path d="M38.8223 8.39234V5.43156C38.8223 3.49343 37.2512 1.92218 35.3129 1.92218H4.68711C2.74891 1.92218 1.17773 3.49343 1.17773 5.43156V8.39234H29.192" fill="white"/>
<path d="M38.8223 9.57007C38.1719 9.57007 37.6445 9.0428 37.6445 8.39234V5.43156C37.6445 4.14593 36.5986 3.09991 35.3129 3.09991H4.68711C3.40148 3.09991 2.35547 4.14585 2.35547 5.43156V7.21452H29.192C29.8423 7.21452 30.3697 7.74179 30.3697 8.39226C30.3697 9.04273 29.8423 9.56999 29.192 9.56999H1.17773C0.527422 9.57007 0 9.0428 0 8.39234V5.43156C0 2.8471 2.10266 0.744446 4.68711 0.744446H35.3129C37.8973 0.744446 40 2.8471 40 5.43156V8.39234C40 9.0428 39.4726 9.57007 38.8223 9.57007Z" fill="#273655"/>
<path d="M1.17773 26.3336V29.8576C1.17773 31.7957 2.74898 33.367 4.68711 33.367H35.3129C37.251 33.367 38.8223 31.7957 38.8223 29.8576V26.3336H10.6902" fill="white"/>
<path d="M35.3129 34.5446H4.68711C2.10266 34.5446 0 32.4419 0 29.8575V26.3336C0 25.6831 0.527422 25.1558 1.17773 25.1558C1.82805 25.1558 2.35547 25.6831 2.35547 26.3336V29.8575C2.35547 31.1432 3.40141 32.1892 4.68711 32.1892H35.3129C36.5985 32.1892 37.6445 31.1432 37.6445 29.8575V27.5114H10.6902C10.0398 27.5114 9.5125 26.9841 9.5125 26.3336C9.5125 25.6832 10.0399 25.1559 10.6902 25.1559H38.8223C39.4727 25.1559 40 25.6832 40 26.3336V29.8576C40 32.4419 37.8973 34.5446 35.3129 34.5446Z" fill="#273655"/>
<path d="M1.17773 29.0989C0.527422 29.0989 0 28.5716 0 27.9211V6.12878C0 5.47832 0.527422 4.95105 1.17773 4.95105C1.82805 4.95105 2.35547 5.47832 2.35547 6.12878V27.9211C2.35555 28.5716 1.82812 29.0989 1.17773 29.0989Z" fill="#273655"/>
<path d="M38.8223 29.0989C38.1719 29.0989 37.6445 28.5716 37.6445 27.9211V4.95099C37.6445 4.30052 38.172 3.77325 38.8223 3.77325C39.4727 3.77325 40 4.30052 40 4.95099V27.9211C40 28.5716 39.4726 29.0989 38.8223 29.0989Z" fill="#273655"/>
<path d="M23.8865 39.2555H16.1133C15.4629 39.2555 14.9355 38.7282 14.9355 38.0778V33.3668C14.9355 32.7164 15.463 32.1891 16.1133 32.1891C16.7636 32.1891 17.291 32.7164 17.291 33.3668V36.8999H22.7087V33.3668C22.7087 32.7164 23.2361 32.1891 23.8864 32.1891C24.5368 32.1891 25.0641 32.7164 25.0641 33.3668V38.0778C25.0642 38.7282 24.537 39.2555 23.8865 39.2555Z" fill="#273655"/>
<path d="M29.1079 39.2555H10.8921C10.2417 39.2555 9.71436 38.7282 9.71436 38.0778C9.71436 37.4273 10.2418 36.9 10.8921 36.9H29.1079C29.7583 36.9 30.2857 37.4273 30.2857 38.0778C30.2857 38.7282 29.7584 39.2555 29.1079 39.2555Z" fill="#273655"/>
</g>
<defs>
<clipPath id="clip0_910_1371">
<rect width="40" height="40" fill="white"/>
</clipPath>
</defs>
</svg>
