<svg width="24" height="24" viewBox="0 0 24 24" fill="none" xmlns="http://www.w3.org/2000/svg">
<path d="M18 4H6C4.89543 4 4 4.89543 4 6V18C4 19.1046 4.89543 20 6 20H18C19.1046 20 20 19.1046 20 18V6C20 4.89543 19.1046 4 18 4Z" fill="white"/>
<path fill-rule="evenodd" clip-rule="evenodd" d="M18.5339 4H5.46615C4.66667 4 4 4.66667 4 5.46615V18.5339C4 19.3333 4.66667 20 5.46615 20H12V13.3333H10V11.3333H12V9.33333C12 7.66667 12.6667 6.66667 14.6667 6.66667H16.6667V8.66667H15.7995C15.2005 8.66667 14.6667 9.20052 14.6667 9.79948V11.3333H17.3333L17 13.3333H14.6667V20H18.5339C19.3333 20 20 19.3333 20 18.5339V5.46615C20 4.66667 19.3333 4 18.5339 4Z" fill="#4961B5"/>
</svg>
