<svg width="90" height="25" viewBox="0 0 90 25" fill="none" xmlns="http://www.w3.org/2000/svg">
<path d="M39.738 13.5429C40.6096 13.5429 41.4811 13.8857 42.0041 14.5714C42.5851 15.2 42.8757 16.1714 42.8757 17.3714C42.8757 18.6857 42.527 19.7143 41.8298 20.5143C41.1906 21.1429 40.3771 21.5429 39.4475 21.5429C38.4597 21.5429 37.7043 21.2 37.2976 20.5143L37.2395 20.4V24.5714H35.4963V16.2857C35.4963 15.4857 35.4963 14.5714 35.4382 13.7143H37.007L37.0651 14.9143C37.7043 14 38.5759 13.5429 39.738 13.5429ZM48.7443 13.5429C49.6159 13.5429 50.4875 13.8857 51.0104 14.5714C51.5915 15.2 51.882 16.1714 51.882 17.3714C51.882 18.6857 51.5333 19.7143 50.8361 20.5143C50.1969 21.1429 49.3835 21.5429 48.4538 21.5429C47.466 21.5429 46.7106 21.2 46.3039 20.5143L46.2458 20.4V24.5714H44.5026V16.2857C44.5026 15.4857 44.5026 14.5714 44.4445 13.7143H46.0133L46.0715 14.9143C46.6525 14 47.5822 13.5429 48.7443 13.5429ZM13.0677 6.00001C13.7068 6.00001 15.6824 6.22858 16.9026 8.00001C16.7283 8.05715 14.6365 9.37144 14.6365 11.9429C14.6946 14.9714 17.4256 16.0572 17.4837 16.2286C17.4837 16.2857 17.0769 17.6572 16.031 19.1429L15.8567 19.3714C15.0432 20.5143 14.1717 21.6 12.8352 21.6C11.4407 21.6 10.9759 20.8 9.40703 20.8C7.78008 20.8 7.25713 21.5429 5.97882 21.6C4.6424 21.6572 3.5965 20.2857 2.72492 19.0286C0.923659 16.4571 -0.470867 11.7714 1.3885 8.62858C2.26008 7.08572 3.94513 6.05715 5.63019 6.05715C6.96661 6.00001 8.24492 6.91429 9.0584 6.91429C9.87187 6.91429 11.4407 5.82858 13.0677 6.00001ZM59.2032 10.6286C60.191 10.6286 61.0045 10.8 61.6437 11.0857L61.2369 12.4571C60.5978 12.1143 59.9005 12 59.2032 12C58.5641 12 58.1573 12.1714 57.7506 12.4571C57.402 12.6857 57.3439 13.0286 57.3439 13.4286C57.3439 13.8286 57.5182 14.2286 57.8087 14.4571C58.1573 14.6857 58.6222 15.0286 59.3776 15.2572C60.2491 15.6572 61.0045 16.0571 61.4112 16.5714C61.818 16.9714 61.9923 17.6 61.9923 18.3429C61.9923 19.2 61.6437 20.0571 61.0045 20.5714C60.2491 21.2 59.2613 21.5429 58.0411 21.5429C56.879 21.5429 55.8912 21.3143 55.2521 20.9143L55.6588 19.4857C56.4142 19.9429 57.2858 20.2286 58.2155 20.2286C58.8546 20.2286 59.3776 20.0571 59.7843 19.8286C60.1329 19.4857 60.3653 19.2 60.3653 18.6286C60.3653 18.2286 60.191 17.8286 59.9005 17.4857C59.5519 17.1429 59.087 16.9143 58.4479 16.6857C56.5885 15.9429 55.6007 14.9714 55.6007 13.6572C55.6007 12.8 55.9493 12.0572 56.5885 11.4857C57.1115 10.8572 58.0411 10.6286 59.2032 10.6286ZM86.687 13.6C87.8491 13.6 88.6626 14 89.2437 14.8C89.7085 15.2572 89.999 16.1714 89.999 17.1429C89.999 17.4857 89.999 17.7143 89.9409 17.9429H84.7115C84.7115 18.6857 84.9439 19.3143 85.4668 19.7143C85.8736 20.0571 86.4546 20.2857 87.21 20.2857C87.9654 20.2857 88.6626 20.1143 89.3599 19.8857L89.5923 21.0857C88.8369 21.4286 87.9653 21.5429 86.9776 21.5429C85.7573 21.5429 84.7696 21.2 84.1304 20.5143C83.4912 19.7714 83.0845 18.8 83.0845 17.7143C83.0845 16.6286 83.4331 15.5429 84.0723 14.8C84.5371 14 85.4087 13.6 86.687 13.6ZM65.711 11.6572V13.6H67.5704C67.7447 13.6 67.7447 14.9143 67.7447 14.9143H65.7691V18.6857C65.7691 19.6572 66.1178 20.1143 66.7569 20.1143C67.1056 20.1143 67.338 20.1143 67.5123 20.0571L67.5704 21.3714C67.2218 21.5429 66.7569 21.5429 66.1759 21.5429C65.5367 21.5429 64.9557 21.3143 64.5489 20.9143C64.1422 20.5143 63.9679 19.7714 63.9679 18.8V14.9143H62.8058V13.6H63.9679V12.1714L65.711 11.6572ZM72.5675 13.4286C73.7296 13.4286 74.6011 13.8286 75.3565 14.5714C76.1119 15.3143 76.4024 16.2857 76.4024 17.3714C76.4024 18.5714 76.0538 19.5429 75.3565 20.2857C74.6011 21.0857 73.6133 21.4857 72.5093 21.4857C71.3472 21.4857 70.4757 21.0857 69.7203 20.3429C69.0811 19.6 68.6744 18.6286 68.6744 17.5429C68.6744 16.3429 69.023 15.3714 69.7203 14.5714C70.4757 13.8286 71.3472 13.4286 72.5675 13.4286ZM30.3249 10.6286L33.8693 21.3143H32.01L31.0222 18.1714H27.4778L26.49 21.3143H24.6887L28.2331 10.6286H30.3249ZM82.1548 13.4286C82.0967 13.4857 82.0967 15.1429 82.0967 15.1429C81.9224 15.1429 81.7481 15.0857 81.5157 15.0857C80.8765 15.0857 80.4698 15.3143 80.1211 15.8286C79.7725 16.2286 79.7144 16.6857 79.7144 17.3714V21.3714H77.9712V16C77.9712 15.1429 77.9712 14.2857 77.9131 13.6H79.482L79.5401 15.0286H79.5982C79.7725 14.5714 80.063 14.1714 80.4698 13.8286C80.8765 13.6 81.2832 13.4286 81.69 13.4286H82.1548ZM39.0407 14.9143C38.634 14.9143 38.2272 15.0857 37.8786 15.3143C37.53 15.6571 37.2976 15.9429 37.2395 16.4571C37.1813 16.6857 37.1813 16.8 37.1813 16.9143V18.2286C37.1813 18.8 37.3557 19.2572 37.6462 19.6572C37.9948 20.0572 38.4597 20.2286 39.0407 20.2286C39.6799 20.2286 40.2028 20 40.6096 19.4857C40.9582 18.9143 41.0744 18.2857 41.0744 17.4857C41.0744 16.7429 40.9001 16.1143 40.6096 15.6572C40.2028 15.1429 39.738 14.9143 39.0407 14.9143ZM48.047 14.9143C47.6403 14.9143 47.2336 15.0857 46.8849 15.3143C46.5363 15.6571 46.3039 15.9429 46.2458 16.4571C46.1877 16.6857 46.1877 16.8 46.1877 16.9143V18.2286C46.1877 18.8 46.362 19.2572 46.6525 19.6572C46.943 20.0572 47.466 20.2286 48.047 20.2286C48.6862 20.2286 49.2091 20 49.6159 19.4857C49.9645 18.9143 50.0807 18.2857 50.0807 17.4857C50.0807 16.7429 49.9064 16.1143 49.6159 15.6572C49.2091 15.1429 48.7443 14.9143 48.047 14.9143ZM72.5675 14.7429C71.8121 14.7429 71.3472 15.0857 70.9405 15.6C70.5919 16.0571 70.4757 16.7429 70.4757 17.4286C70.4757 18.1143 70.65 18.7429 70.9405 19.2572C71.3472 19.8857 71.8121 20.1143 72.5093 20.1143C73.1485 20.1143 73.7296 19.7714 74.0782 19.1429C74.4849 18.6857 74.6592 18.1143 74.6592 17.3714C74.6592 16.6286 74.4849 16.0572 74.1944 15.5429C73.8458 14.9714 73.2647 14.7429 72.5675 14.7429ZM29.279 12.0572C29.2209 12.5143 29.0466 13.2 28.8142 14.0572L27.9426 16.8572H30.7898L29.9182 14.0572C29.8601 13.7714 29.6858 13.1429 29.3952 12.2286L29.279 12.0572ZM86.5127 14.6857C85.9317 14.6857 85.4668 14.9143 85.1182 15.4286C84.7696 15.8286 84.6533 16.2286 84.6533 16.8L88.2559 16.7429C88.2559 16.2857 88.1978 15.7714 87.9072 15.4286C87.5586 14.9143 87.1519 14.6857 86.5127 14.6857ZM87.6167 2.97144C88.1978 2.97144 88.6045 3.20001 88.8369 3.60001C89.0112 3.82858 89.0694 4.22858 89.0694 4.74286V5.14286H86.5127C86.5127 5.54286 86.687 5.77144 86.9195 6.00001C87.1519 6.17144 87.3843 6.22858 87.7329 6.22858C88.1397 6.22858 88.4883 6.17144 88.7788 6.05715L88.9531 6.62858C88.6045 6.80001 88.1397 6.85715 87.6167 6.85715C87.0357 6.85715 86.5708 6.68572 86.2222 6.40001C85.8736 6.05715 85.7574 5.60001 85.7574 5.02858C85.7574 4.45715 85.9317 4.00001 86.2222 3.60001C86.687 3.25715 87.1519 2.97144 87.6167 2.97144ZM78.9009 2.05715V3.02858H79.8887V3.65715H78.9009V5.48572C78.9009 5.94286 79.0752 6.22858 79.3658 6.22858H79.7725V6.85715C79.5982 6.91429 79.3658 6.91429 79.1333 6.91429C78.7847 6.91429 78.5523 6.85715 78.3199 6.57144C78.1456 6.34286 78.0875 6.00001 78.0875 5.54286V3.60001H77.5064V2.97144H78.0875V2.28572L78.9009 2.05715ZM27.1291 1.54286C28.0007 1.54286 28.7561 1.71429 29.279 2.11429C29.8601 2.57144 30.0925 3.25715 30.0925 4.05715C30.0925 5.02858 29.7439 5.77144 29.2209 6.22858C28.6399 6.62858 27.8845 6.85715 26.9548 6.85715C26.49 6.85715 26.0832 6.85715 25.7346 6.80001V1.65715C26.1413 1.54286 26.6643 1.54286 27.1291 1.54286ZM32.9978 2.91429C33.5788 2.91429 33.9856 3.08572 34.3923 3.48572C34.7409 3.88572 34.8571 4.28572 34.8571 4.85715C34.8571 5.42858 34.7409 5.88572 34.3923 6.28572C34.0437 6.68572 33.5788 6.85715 32.9978 6.85715C32.4167 6.85715 32.01 6.68572 31.6032 6.28572C31.2546 5.88572 31.1384 5.48572 31.1384 4.91429C31.1384 4.34286 31.3127 3.88572 31.6032 3.48572C31.9519 3.08572 32.4167 2.91429 32.9978 2.91429ZM51.359 2.91429C51.9401 2.91429 52.3468 3.08572 52.7536 3.48572C53.1022 3.88572 53.2184 4.28572 53.2184 4.85715C53.2184 5.42858 53.0441 5.88572 52.7536 6.28572C52.4049 6.68572 51.9401 6.85715 51.359 6.85715C50.778 6.85715 50.3712 6.68572 49.9645 6.28572C49.6159 5.88572 49.4997 5.48572 49.4997 4.91429C49.4997 4.34286 49.674 3.88572 49.9645 3.48572C50.255 3.08572 50.778 2.91429 51.359 2.91429ZM67.6285 2.91429C68.2096 2.91429 68.6163 3.08572 69.023 3.48572C69.3717 3.88572 69.4879 4.28572 69.4879 4.85715C69.4879 5.42858 69.3136 5.88572 69.023 6.28572C68.6744 6.68572 68.2096 6.85715 67.6285 6.85715C67.0475 6.85715 66.6407 6.68572 66.234 6.28572C65.8853 5.88572 65.7691 5.48572 65.7691 4.91429C65.7691 4.34286 65.9435 3.88572 66.234 3.48572C66.5245 3.08572 67.0475 2.91429 67.6285 2.91429ZM55.6588 2.91429C56.6466 2.91429 57.2277 3.37144 57.2277 4.45715V5.82858C57.2858 6.28572 57.2858 6.62858 57.2858 6.80001H56.5304L56.4723 6.40001C56.2399 6.74287 55.8331 6.85715 55.3102 6.85715C54.9616 6.85715 54.671 6.80001 54.4386 6.51429C54.2643 6.28572 54.09 6.05715 54.09 5.71429C54.09 5.25715 54.2643 4.91429 54.671 4.68572C55.0778 4.45715 55.6588 4.28572 56.298 4.34286V4.28572C56.298 3.82858 56.0656 3.54286 55.4845 3.54286C55.0778 3.54286 54.7291 3.60001 54.4967 3.77144L54.3224 3.20001C54.671 2.97144 55.194 2.91429 55.6588 2.91429ZM62.2247 1.14286V5.65715C62.1666 6.11429 62.2247 6.45715 62.2247 6.80001H61.4693V6.17144C61.2369 6.62858 60.8302 6.91429 60.2491 6.91429C59.7843 6.91429 59.4357 6.74286 59.087 6.34286C58.7384 5.94286 58.6222 5.54286 58.6222 4.97144C58.6222 4.34286 58.7965 3.82858 59.087 3.42858C59.4357 3.08572 59.8424 2.85715 60.3072 2.85715C60.7721 2.85715 61.1207 2.97144 61.3531 3.25715L61.4112 3.31429V1.14286H62.2247ZM72.7418 2.85715C73.0904 2.85715 73.3809 2.91429 73.6133 3.20001C73.962 3.42858 74.0201 3.94286 74.0201 4.51429V6.85715H73.2647V4.68572C73.2647 4.05715 73.0323 3.71429 72.4512 3.71429C72.2188 3.71429 71.9864 3.77144 71.8121 3.94286C71.6378 4.11429 71.5797 4.34286 71.5797 4.57144V6.80001H70.7662V3.02858H71.5216V3.60001C71.5797 3.42858 71.754 3.25715 71.9283 3.14286C72.1607 2.91429 72.4512 2.85715 72.7418 2.85715ZM38.9245 2.91429L39.3893 4.68572C39.5056 5.02858 39.6218 5.42858 39.6799 5.77144L39.738 6.00001L39.7961 5.82858C39.8542 5.48572 39.9123 5.14286 40.0285 4.74286L40.4933 2.97144L41.3649 3.02858L40.1447 6.80001H39.3312L38.8083 5.14286C38.6921 4.80001 38.5759 4.45715 38.5178 4.11429L38.4597 3.88572C38.4016 4.28572 38.2853 4.68572 38.111 5.08572L37.6462 6.68572H36.8327L35.6706 2.91429H36.5422L36.9489 4.68572L37.0651 5.31429L37.1813 5.94286L37.2395 5.82858C37.2976 5.54286 37.4138 5.14286 37.53 4.74286L38.111 2.91429H38.9245ZM44.3283 2.85715C44.6769 2.85715 44.9675 2.91429 45.1999 3.20001C45.5485 3.42858 45.6066 3.94286 45.6066 4.51429V6.85715H44.9675V4.68572C44.9675 4.05715 44.735 3.71429 44.154 3.71429C43.9216 3.71429 43.6891 3.77144 43.5148 3.94286C43.3405 4.11429 43.2824 4.34286 43.2824 4.57144V6.80001H42.4689V3.02858H43.2243V3.60001C43.2824 3.42858 43.4567 3.25715 43.631 3.14286C43.8053 2.91429 44.0378 2.85715 44.3283 2.85715ZM48.1632 1.20001V6.74286H47.3498V1.20001H48.1632ZM82.0967 1.14286V3.37144C82.3291 2.97144 82.7359 2.74286 83.2588 2.74286C83.6075 2.74286 83.898 2.80001 84.1304 3.08572C84.479 3.42858 84.5371 3.82858 84.5371 4.40001C84.479 4.57144 84.479 6.80001 84.479 6.80001H83.6656V4.62858C83.6656 4.00001 83.4331 3.60001 82.9102 3.60001C82.5034 3.60001 82.271 3.77144 82.0967 4.17144V6.74286H81.2832V1.14286H82.0967ZM32.9978 3.54286C32.6491 3.54286 32.4167 3.71429 32.1843 4.00001C32.01 4.22858 31.9519 4.57144 31.9519 4.85715C31.9519 5.14286 32.01 5.48572 32.1843 5.71429C32.3586 6.05715 32.591 6.17144 32.9978 6.17144C33.3464 6.17144 33.5788 6.00001 33.7531 5.71429C33.9275 5.48572 33.9856 5.14286 33.9856 4.85715C33.9856 4.57144 33.9275 4.22858 33.7531 4.00001C33.5788 3.71429 33.3464 3.54286 32.9978 3.54286ZM51.359 3.54286C51.0104 3.54286 50.778 3.71429 50.5456 4.00001C50.3712 4.22858 50.3131 4.57144 50.3131 4.85715C50.3131 5.14286 50.3712 5.48572 50.5456 5.71429C50.7199 6.05715 50.9523 6.17144 51.359 6.17144C51.7077 6.17144 51.9401 6.00001 52.1144 5.71429C52.2887 5.48572 52.3468 5.14286 52.3468 4.85715C52.3468 4.57144 52.2887 4.22858 52.1144 4.00001C51.882 3.71429 51.6496 3.54286 51.359 3.54286ZM56.4142 4.91429C55.4264 4.91429 55.0197 5.14286 55.0197 5.65715C55.0197 5.82858 55.0778 6.00001 55.194 6.11429C55.3102 6.22858 55.4264 6.28572 55.6007 6.28572C55.775 6.28572 55.9493 6.22858 56.0656 6.11429C56.2399 6.05715 56.298 5.88572 56.4142 5.65715V4.91429ZM67.6866 3.54286C67.338 3.54286 67.1056 3.71429 66.8731 4.00001C66.6988 4.22858 66.6407 4.57144 66.6407 4.85715C66.6407 5.14286 66.6988 5.48572 66.8731 5.71429C67.0475 6.05715 67.2799 6.17144 67.6866 6.17144C68.0352 6.17144 68.2677 6.00001 68.442 5.71429C68.6163 5.48572 68.6744 5.14286 68.6744 4.85715C68.6744 4.57144 68.6163 4.22858 68.442 4.00001C68.2677 3.71429 68.0352 3.54286 67.6866 3.54286ZM60.4235 3.54286C60.0748 3.54286 59.8424 3.71429 59.6681 3.94286C59.4938 4.17144 59.4357 4.51429 59.4357 4.91429C59.4357 5.31429 59.4938 5.54286 59.6681 5.77144C59.8424 6.00001 60.0748 6.17144 60.4235 6.17144C60.6559 6.17144 60.8883 6.11429 61.0626 5.82858C61.2369 5.65715 61.295 5.42858 61.295 5.08572V4.22858C61.2369 4.00001 61.1207 3.82858 60.9464 3.77144C60.8302 3.65715 60.6559 3.54286 60.4235 3.54286ZM27.1872 2.11429C26.9548 2.11429 26.7224 2.11429 26.5481 2.17144V6.11429H27.1291C27.7683 6.11429 28.2912 5.94286 28.698 5.54286C29.0466 5.20001 29.1628 4.74286 29.1628 4.00001C29.1628 3.37144 28.9885 2.97144 28.698 2.57144C28.3493 2.28572 27.8845 2.11429 27.1872 2.11429ZM13.0677 0.971436C13.242 2.17144 12.719 3.37144 12.0218 4.28572C11.3245 5.20001 10.1624 5.82858 8.94219 5.65715C8.76787 4.51429 9.34892 3.25715 9.98808 2.51429C10.7435 1.71429 12.0218 1.08572 13.0677 0.971436ZM87.5005 3.54286C87.2681 3.54286 87.0357 3.60001 86.8614 3.88572C86.687 4.05715 86.6289 4.28572 86.6289 4.51429H88.3721C88.3721 4.28572 88.314 4.05715 88.1978 3.88572C87.9653 3.65715 87.7329 3.54286 87.5005 3.54286Z" fill="#273655"/>
</svg>
