<svg width="24" height="24" viewBox="0 0 24 24" fill="none" xmlns="http://www.w3.org/2000/svg">
<path fill-rule="evenodd" clip-rule="evenodd" d="M12.0007 4C9.82806 4 9.55539 4.0095 8.70205 4.04833C7.85037 4.08733 7.26903 4.22217 6.76036 4.42C6.23419 4.62433 5.78785 4.89767 5.34318 5.3425C4.89818 5.78717 4.62484 6.2335 4.41984 6.7595C4.2215 7.26833 4.0865 7.84983 4.04817 8.70117C4.01 9.5545 4 9.82733 4 12C4 14.1727 4.00967 14.4445 4.04833 15.2978C4.0875 16.1495 4.22234 16.7308 4.42 17.2395C4.62451 17.7657 4.89784 18.212 5.34268 18.6567C5.78719 19.1017 6.23352 19.3757 6.75936 19.58C7.26837 19.7778 7.84987 19.9127 8.70138 19.9517C9.55472 19.9905 9.82723 20 11.9998 20C14.1726 20 14.4444 19.9905 15.2978 19.9517C16.1495 19.9127 16.7315 19.7778 17.2405 19.58C17.7665 19.3757 18.2121 19.1017 18.6567 18.6567C19.1017 18.212 19.375 17.7657 19.58 17.2397C19.7767 16.7308 19.9117 16.1493 19.9517 15.298C19.99 14.4447 20 14.1727 20 12C20 9.82733 19.99 9.55467 19.9517 8.70133C19.9117 7.84967 19.7767 7.26833 19.58 6.75967C19.375 6.2335 19.1017 5.78717 18.6567 5.3425C18.2116 4.8975 17.7666 4.62417 17.24 4.42C16.73 4.22217 16.1483 4.08733 15.2966 4.04833C14.4433 4.0095 14.1716 4 11.9983 4H12.0007ZM16.2711 6.77C15.7411 6.77 15.3111 7.1995 15.3111 7.72967C15.3111 8.25967 15.7411 8.68967 16.2711 8.68967C16.8011 8.68967 17.2311 8.25967 17.2311 7.72967C17.2311 7.19967 16.8011 6.76967 16.2711 6.76967V6.77ZM12.0007 7.89167C9.73189 7.89167 7.89237 9.73117 7.89237 12C7.89237 14.2688 9.73189 16.1075 12.0007 16.1075C14.2696 16.1075 16.1085 14.2688 16.1085 12C16.1085 9.73117 14.2694 7.89167 12.0006 7.89167H12.0007ZM12.0007 9.33333C13.4734 9.33333 14.6674 10.5272 14.6674 12C14.6674 13.4727 13.4734 14.6667 12.0007 14.6667C10.5279 14.6667 9.33406 13.4727 9.33406 12C9.33406 10.5272 10.5279 9.33333 12.0007 9.33333Z" fill="url(#paint0_linear_910_1672)"/>
<defs>
<linearGradient id="paint0_linear_910_1672" x1="14.6902" y1="2.31884" x2="19.7349" y2="21.8322" gradientUnits="userSpaceOnUse">
<stop stop-color="#4E60D3"/>
<stop offset="0.142763" stop-color="#913BAF"/>
<stop offset="0.761458" stop-color="#D52D88"/>
<stop offset="1" stop-color="#F26D4F"/>
</linearGradient>
</defs>
</svg>
