<svg width="24" height="24" viewBox="0 0 24 24" fill="none" xmlns="http://www.w3.org/2000/svg">
<path fill-rule="evenodd" clip-rule="evenodd" d="M8.17818 9.55367H5.17744V18.9998H8.17818V9.55367ZM8.37582 6.63162C8.35634 5.70544 7.72418 5 6.69765 5C5.67111 5 5 5.70544 5 6.63162C5 7.53862 5.65128 8.26436 6.6587 8.26436H6.67787C7.72418 8.26436 8.37582 7.53862 8.37582 6.63162ZM19 13.5837C19 10.6822 17.5196 9.33186 15.545 9.33186C13.9518 9.33186 13.2385 10.2487 12.8403 10.8919V9.55392H9.83915C9.87871 10.4403 9.83915 19 9.83915 19H12.8403V13.7245C12.8403 13.4422 12.8597 13.1606 12.9391 12.9585C13.1559 12.3945 13.6497 11.8105 14.4788 11.8105C15.565 11.8105 15.9993 12.6767 15.9993 13.9461V18.9998H18.9999L19 13.5837Z" fill="#4888F8"/>
</svg>
