<svg width="94" height="20" viewBox="0 0 94 20" fill="none" xmlns="http://www.w3.org/2000/svg">
<path d="M4.61427 19.7356H0V0.543316H4.61427V19.7356ZM12.4579 13.2237V19.7356H7.83072V0.543316H15.4889C16.9561 0.543316 18.2523 0.815788 19.3777 1.36073C20.5111 1.896 21.3849 2.66504 22.0008 3.66786C22.6248 4.66101 22.9375 5.78959 22.9375 7.05521C22.9375 8.92703 22.2652 10.4248 20.9206 11.5502C19.5857 12.6658 17.7477 13.2237 15.4099 13.2237H12.4579ZM12.4579 9.65094H15.4889C16.3853 9.65094 17.0657 9.42683 17.5316 8.97863C18.0056 8.53042 18.2443 7.89842 18.2443 7.081C18.2443 6.18459 18.0024 5.46875 17.5187 4.93187C17.0351 4.3966 16.3757 4.12413 15.5421 4.11446H12.4579V9.65094ZM35.3148 14.6344C35.3148 13.9573 35.073 13.4301 34.5893 13.0528C34.1153 12.6755 33.2753 12.2837 32.0709 11.8791C30.8666 11.4744 29.8831 11.0842 29.1189 10.7053C26.6312 9.48326 25.3882 7.8049 25.3882 5.67028C25.3882 4.60619 25.6961 3.67109 26.3104 2.86335C26.9343 2.04594 27.813 1.41393 28.9464 0.965725C30.0798 0.509458 31.3535 0.280518 32.7691 0.280518C34.1846 0.280518 35.3841 0.527193 36.4724 1.01893C37.5703 1.51067 38.4232 2.21361 39.0294 3.12776C39.6356 4.03223 39.9387 5.07052 39.9387 6.23941H35.3245C35.3245 5.45746 35.0826 4.85126 34.599 4.42079C34.125 3.99031 33.4784 3.77427 32.661 3.77427C31.8436 3.77427 31.181 3.95807 30.6973 4.32727C30.2233 4.68842 29.9863 5.14952 29.9863 5.71059C29.9863 6.20233 30.2507 6.65053 30.7779 7.05521C31.3051 7.45021 32.2322 7.86295 33.5591 8.29503C34.8859 8.71744 35.9758 9.17371 36.8287 9.66545C38.9021 10.8601 39.9404 12.5078 39.9404 14.6086C39.9404 16.287 39.3084 17.6058 38.0427 18.5635C36.7771 19.5211 35.0423 20 32.8368 20C31.2809 20 29.8702 19.7227 28.6046 19.1697C27.3487 18.607 26.399 17.8428 25.7574 16.8754C25.1254 15.9 24.8077 14.7795 24.8077 13.5139H29.4478C29.4478 14.5425 29.7122 15.3019 30.2394 15.7936C30.7747 16.2773 31.6405 16.5191 32.8368 16.5191C33.601 16.5191 34.204 16.3563 34.6425 16.0322C35.0907 15.6985 35.3148 15.2326 35.3148 14.6344ZM47.2439 19.7356H42.6296V0.543316H47.2439V19.7356Z" fill="#273655"/>
<path d="M65.6301 5.18505C64.5982 3.84366 62.8957 3.09557 61.2189 3.09557C57.1174 3.09557 54.4088 6.37167 54.4088 10.5248C54.4088 14.3684 56.9626 17.6445 61.2189 17.6445C63.3084 17.6445 64.9078 16.7159 65.9912 15.1939L68.0807 16.7675C67.539 17.5156 65.3463 19.9662 61.1673 19.9662C55.3632 19.9662 51.7776 15.1165 51.7776 10.5248C51.7776 4.8497 55.6728 0.773926 61.2963 0.773926C63.6954 0.773926 66.2234 1.67679 67.6937 3.61149L65.6301 5.18505Z" fill="#273655"/>
<path d="M72.2337 14.2393C72.2337 16.3804 74.22 17.7992 76.3611 17.7992C77.7799 17.7992 78.8117 17.0769 79.7146 15.9677L81.4687 17.3091C80.1789 18.9858 78.399 19.8113 76.0516 19.8113C72.1822 19.8113 69.7573 17.0253 69.7573 13.3881C69.7573 9.75082 72.4143 6.96484 76.0774 6.96484C80.3853 6.96484 82.0363 10.2667 82.0363 13.4139V14.2393H72.2337ZM79.5598 12.382C79.5082 10.3441 78.3732 8.82216 76.0258 8.82216C73.6783 8.82216 72.2337 10.7569 72.2337 12.382H79.5598Z" fill="#273655"/>
<path d="M85.0029 0H87.3246V19.5018H85.0029V0Z" fill="#273655"/>
<path d="M91.2197 0H93.5414V19.5018H91.2197V0Z" fill="#273655"/>
</svg>
