<svg width="40" height="40" viewBox="0 0 40 40" fill="none" xmlns="http://www.w3.org/2000/svg">
<path d="M33.4522 11.4668H1.09058V15.4494H33.4522V11.4668Z" fill="white"/>
<path d="M13.9076 26.7892C15.5371 26.7892 16.858 25.4682 16.858 23.8388C16.858 22.2094 15.5371 20.8884 13.9076 20.8884C12.2782 20.8884 10.9573 22.2094 10.9573 23.8388C10.9573 25.4682 12.2782 26.7892 13.9076 26.7892Z" fill="white"/>
<path d="M37.4473 21.466C36.0463 21.466 34.8379 20.6444 34.2757 19.457H32.628C32.0658 20.6444 30.8573 21.466 29.4564 21.466C28.9347 21.466 28.4396 21.3519 27.9946 21.1477V27.8678C27.9946 30.6152 33.4518 32.8631 33.4518 32.8631C33.4518 32.8631 38.9089 30.6152 38.9089 27.8678V21.1477C38.464 21.3519 37.969 21.466 37.4473 21.466Z" fill="white"/>
<path d="M23.636 29.2027H2.18147V16.5404H33.452C34.0544 16.5404 34.5427 16.052 34.5427 15.4497V11.4671C34.5427 10.8648 34.0544 10.3764 33.452 10.3764H2.18147V8.22778H33.452C34.0544 8.22778 34.5427 7.73935 34.5427 7.13708C34.5427 6.53482 34.0544 6.04639 33.452 6.04639H1.0907C0.488278 6.04631 0 6.53474 0 7.13701V30.2935C0 30.8958 0.488278 31.3842 1.0907 31.3842H23.636C24.2385 31.3842 24.7267 30.8958 24.7267 30.2935C24.7267 29.6912 24.2385 29.2027 23.636 29.2027ZM32.3612 12.5578V14.359H2.18147V12.5578H32.3612Z" fill="#273655"/>
<path d="M8.18943 21.9794C8.79185 21.9794 9.28013 21.4909 9.28013 20.8887C9.28013 20.2864 8.79185 19.798 8.18943 19.798C5.96124 19.798 4.14844 21.6108 4.14844 23.839C4.14844 26.0672 5.96124 27.88 8.18943 27.88C9.28614 27.88 10.3062 27.4389 11.0496 26.6935C11.7815 27.4262 12.7924 27.88 13.9074 27.88C16.1356 27.88 17.9484 26.0672 17.9484 23.839C17.9484 21.6107 16.1356 19.798 13.9074 19.798C11.6793 19.798 9.86645 21.6108 9.86645 23.839C9.86645 24.0706 9.88708 24.2974 9.92473 24.5184C9.91762 24.5331 9.90981 24.5473 9.90333 24.5625C9.61145 25.2527 8.9388 25.6986 8.18951 25.6986C7.16412 25.6986 6.32991 24.8643 6.32991 23.839C6.32983 22.8137 7.16404 21.9794 8.18943 21.9794ZM13.9074 21.9794C14.9328 21.9794 15.767 22.8136 15.767 23.839C15.767 24.8644 14.9328 25.6986 13.9074 25.6986C12.882 25.6986 12.0478 24.8644 12.0478 23.839C12.0478 22.8137 12.882 21.9794 13.9074 21.9794Z" fill="#273655"/>
<path d="M39.4977 20.2294C39.1849 20.0287 38.7915 20.0014 38.4539 20.1564C38.1376 20.3016 37.7989 20.3752 37.4472 20.3752C36.5178 20.3752 35.6597 19.8316 35.2614 18.9903C35.081 18.6093 34.6972 18.3663 34.2756 18.3663H32.628C32.2064 18.3663 31.8226 18.6094 31.6422 18.9903C31.2439 19.8316 30.3858 20.3752 29.4564 20.3752C29.1047 20.3752 28.7661 20.3016 28.4497 20.1564C28.1122 20.0014 27.7187 20.0291 27.4059 20.2294C27.1011 20.4249 26.9151 20.7587 26.9057 21.1194H21.0365C20.4341 21.1194 19.9458 21.6079 19.9458 22.2101C19.9458 22.8124 20.4341 23.3008 21.0365 23.3008H26.9039V24.3771H21.0366C20.4342 24.3771 19.9459 24.8655 19.9459 25.4678C19.9459 26.07 20.4342 26.5585 21.0366 26.5585H26.904V27.8674C26.904 31.2477 32.4088 33.6129 33.0365 33.8714C33.1696 33.9262 33.3107 33.9537 33.452 33.9537C33.5932 33.9537 33.7344 33.9263 33.8674 33.8714C34.4952 33.6129 39.9999 31.2477 39.9999 27.8674V21.1476C39.9997 20.7761 39.8105 20.4301 39.4977 20.2294ZM37.8182 27.8676C37.8182 29.1424 35.3488 30.8053 33.4517 31.6734C31.5546 30.8053 29.0853 29.1424 29.0853 27.8676V22.5419C29.2081 22.5516 29.3318 22.5565 29.4564 22.5565C30.9825 22.5565 32.407 21.7867 33.2554 20.5476H33.6481C34.4965 21.7867 35.9211 22.5565 37.4472 22.5565C37.5717 22.5565 37.6955 22.5516 37.8183 22.5419V27.8676H37.8182Z" fill="#273655"/>
</svg>
