<svg width="24" height="24" viewBox="0 0 24 24" fill="none" xmlns="http://www.w3.org/2000/svg">
<path fill-rule="evenodd" clip-rule="evenodd" d="M11.7689 8.72422L11.8036 9.32976L11.2256 9.25561C9.12147 8.97138 7.28329 8.00746 5.72257 6.38857L4.95955 5.5853L4.76302 6.17848C4.34683 7.50078 4.61273 8.89723 5.47979 9.83643C5.94223 10.3555 5.83818 10.4296 5.04048 10.1207C4.76302 10.0218 4.52024 9.94766 4.49712 9.98473C4.41619 10.0712 4.69365 11.1958 4.91331 11.6407C5.21389 12.2586 5.82662 12.8641 6.49715 13.2225L7.06363 13.5067L6.3931 13.5191C5.74569 13.5191 5.72257 13.5315 5.79194 13.791C6.02315 14.5942 6.93646 15.4469 7.95382 15.8177L8.6706 16.0772L8.04631 16.4727C7.12144 17.0411 6.03472 17.3624 4.94799 17.3871C4.42775 17.3995 4 17.4489 4 17.486C4 17.6096 5.41043 18.3016 6.23125 18.5735C8.69372 19.3768 11.6186 19.0307 13.8152 17.659C15.3759 16.6827 16.9366 14.7425 17.665 12.8641C18.058 11.8631 18.4511 10.0342 18.4511 9.15675C18.4511 8.58828 18.4858 8.51413 19.1332 7.83445C19.5147 7.43899 19.8731 7.00646 19.9425 6.88288C20.0581 6.64808 20.0465 6.64808 19.4569 6.85817C18.4742 7.22891 18.3355 7.17948 18.8211 6.62337C19.1794 6.22791 19.6072 5.51115 19.6072 5.30107C19.6072 5.26399 19.4338 5.32578 19.2372 5.437C19.0291 5.56058 18.5667 5.74595 18.2199 5.85718L17.5956 6.06726L17.0291 5.65945C16.717 5.437 16.2777 5.18985 16.0464 5.1157C15.4568 4.94269 14.5551 4.9674 14.0233 5.16513C12.5782 5.72124 11.6649 7.15476 11.7689 8.72422Z" fill="#55ACEE"/>
</svg>
