<svg width="24" height="24" viewBox="0 0 24 24" fill="none" xmlns="http://www.w3.org/2000/svg">
<path fill-rule="evenodd" clip-rule="evenodd" d="M19.84 9.37282C19.84 9.37282 19.6835 8.29515 19.204 7.82059C18.5955 7.19745 17.9135 7.19452 17.601 7.15835C15.362 7 12.0035 7 12.0035 7H11.9965C11.9965 7 8.638 7 6.399 7.15835C6.086 7.19452 5.4045 7.19745 4.7955 7.82059C4.316 8.29515 4.16 9.37282 4.16 9.37282C4.16 9.37282 4 10.6386 4 11.904V13.0906C4 14.3565 4.16 15.6218 4.16 15.6218C4.16 15.6218 4.316 16.6995 4.7955 17.174C5.4045 17.7972 6.204 17.7776 6.56 17.8426C7.84 17.9629 12 18 12 18C12 18 15.362 17.9951 17.601 17.8368C17.9135 17.8001 18.5955 17.7972 19.204 17.174C19.6835 16.6995 19.84 15.6218 19.84 15.6218C19.84 15.6218 20 14.3565 20 13.0906V11.904C20 10.6386 19.84 9.37282 19.84 9.37282Z" fill="#F31A11"/>
<path fill-rule="evenodd" clip-rule="evenodd" d="M10.0005 14.3942L10 10L14.323 12.2047L10.0005 14.3942Z" fill="white"/>
</svg>
